<svg version="1.2" width="400" height="400" baseProfile="tiny-ps" xmlns="http://www.w3.org/2000/svg"><title>Whatboard LLC</title><g fill-rule="evenodd"><path d="M238.766 133.034 132.163 239.741l3.448 3.463c1.897 1.904 3.285 3.463 3.086 3.463-.199 0-19.154-18.792-42.122-41.759l-41.76-41.759v128.25l28.981 29.143c15.94 16.029 33.12 33.159 38.177 38.067l9.196 8.924 32.101-32.1c17.656-17.655 32.266-32.1 32.466-32.1.201 0 14.409 14.041 31.575 31.202l31.21 31.202 43.517-43.516 43.518-43.516V163.89l-46.205 46.203c-25.412 25.412-46.373 46.203-46.579 46.203-.206 0-2.759-2.388-5.673-5.308l-5.298-5.308 51.885-51.821 51.885-51.822-.008-57.87c-.004-31.829-.049-57.864-.1-57.856-.051.009-48.064 48.034-106.697 106.723m-157.285 56.04c6.415 6.417 11.746 11.667 11.848 11.667.102 0-5.063-5.25-11.477-11.667-6.414-6.417-11.746-11.667-11.848-11.667-.101 0 5.063 5.25 11.477 11.667m27.593 27.593c6.516 6.518 11.931 11.852 12.033 11.852.102 0-5.146-5.334-11.663-11.852-6.516-6.519-11.93-11.852-12.032-11.852-.102 0 5.146 5.333 11.662 11.852" fill="#2c3c7c"/><path d="M298.874 209.83c-25.556 25.556-46.299 46.466-46.095 46.466.484 0 92.987-92.505 92.745-92.747-.102-.102-21.094 20.724-46.65 46.281" fill="#343c84"/><path d="m297.961 73.796-11.85 11.945 11.945-11.85C304.625 67.374 310 61.999 310 61.947c0-.262-1.027.749-12.039 11.849m-47.222 47.223-11.665 11.759 11.759-11.665c10.929-10.84 11.926-11.854 11.665-11.854-.052 0-5.344 5.292-11.759 11.76M54.815 162.681c0 .571 83.59 84.222 83.876 83.936.112-.111-18.715-19.148-41.837-42.304-23.121-23.156-42.039-41.89-42.039-41.632m140.553 13.708-11.849 11.944 11.944-11.849c6.569-6.518 11.944-11.893 11.944-11.945 0-.261-1.026.749-12.039 11.85m-47.407 47.407-11.85 11.945 11.945-11.85c11.1-11.013 12.111-12.039 11.849-12.039-.052 0-5.427 5.375-11.944 11.944m97.963 17.503-4.25 4.261 5.55 5.461 5.551 5.46-5.364-5.462-5.363-5.462 4.248-4.26c2.336-2.343 4.164-4.26 4.062-4.26-.102 0-2.097 1.918-4.434 4.262m56.021 81.015-43.426 43.426-31.204-31.111-31.204-31.11L227.503 335l31.392 31.481 43.368-43.406c23.852-23.874 43.309-43.582 43.237-43.797-.071-.214-19.671 19.152-43.555 43.036m-245.093-28.61c1.003 1.018 1.907 1.852 2.009 1.852.102 0-.636-.834-1.639-1.852-1.003-1.019-1.907-1.852-2.009-1.852-.102 0 .636.833 1.639 1.852m9.074 9.074c1.927 1.935 3.587 3.518 3.689 3.518.102 0-1.392-1.583-3.319-3.518-1.927-1.935-3.587-3.519-3.689-3.519-.102 0 1.392 1.584 3.319 3.519m97.317 32.682-32.127 32.127-5.28-5.181-5.28-5.18 5.463 5.552 5.463 5.553 32.222-32.22c29.961-29.96 32.707-32.778 31.944-32.778-.153 0-14.735 14.457-32.405 32.127m-68.058-3.423c1.107 1.12 2.095 2.037 2.197 2.037.102 0-.72-.917-1.826-2.037-1.107-1.12-2.096-2.037-2.197-2.037-.102 0 .72.917 1.826 2.037" fill="#2c347c"/><path d="M331.481 293.519c-.899.916-1.552 1.666-1.45 1.666.102 0 .921-.75 1.821-1.666.899-.917 1.552-1.667 1.45-1.667-.101 0-.921.75-1.821 1.667" fill="#2c3c84"/></g></svg>